<svg width="180" height="231" viewBox="0 0 180 231" fill="none" xmlns="http://www.w3.org/2000/svg">
<path d="M91.1451 0.153117C92.7639 0.758196 94.1959 1.60145 95.6743 2.49085C96.5462 2.99142 97.4189 3.49073 98.2922 3.9889C98.9685 4.37873 98.9685 4.37873 99.6585 4.77643C101.964 6.0785 104.319 7.2809 106.674 8.49009C110.655 10.5476 114.6 12.661 118.526 14.822C121.456 16.4312 124.41 17.9912 127.378 19.5309C130.758 21.2844 134.113 23.0744 137.449 24.9105C140.969 26.8474 144.514 28.7262 148.083 30.5718C152.059 32.6285 156.001 34.7374 159.923 36.8978C163.383 38.7988 166.878 40.6289 170.391 42.4313C172.429 43.484 174.446 44.5659 176.432 45.7142C176.79 45.9214 177.148 46.1286 177.518 46.342C178.582 47.1047 179.136 47.7003 179.814 48.823C179.984 50.1266 179.984 50.1266 179.986 51.6701C179.99 52.256 179.993 52.842 179.997 53.4457C179.995 54.0945 179.992 54.7433 179.989 55.3921C179.991 56.0763 179.993 56.7606 179.996 57.4448C180.002 59.3057 180 61.1665 179.996 63.0274C179.992 64.9842 179.996 66.9411 179.998 68.8979C180 72.1939 179.997 75.4898 179.99 78.7857C179.983 82.569 179.985 86.3522 179.993 90.1355C179.999 93.3988 180 96.6619 179.996 99.9252C179.994 101.867 179.994 103.809 179.998 105.75C180.04 126.677 176.672 146.689 167.212 165.541C167.046 165.874 166.88 166.208 166.709 166.552C164.455 171.057 161.945 175.349 159.11 179.511C158.933 179.771 158.756 180.032 158.574 180.301C156.021 184.036 153.27 187.543 150.293 190.95C149.844 191.465 149.398 191.983 148.954 192.502C144.163 198.077 138.891 203.487 133.004 207.901C132.387 208.38 131.77 208.858 131.153 209.336C122.51 215.953 113.185 220.984 103.298 225.477C102.744 225.73 102.19 225.984 101.637 226.238C100.22 226.885 98.7993 227.521 97.3749 228.151C96.5682 228.509 95.7641 228.873 94.9602 229.237C91.4327 230.768 88.939 231.659 85.2264 230.406C83.546 229.739 81.9028 229.015 80.2584 228.265C79.6559 227.996 79.0532 227.727 78.4504 227.458C76.6741 226.661 74.9063 225.847 73.1413 225.026C72.6608 224.803 72.1804 224.579 71.6855 224.349C62.9709 220.246 55.0541 215.2 47.4857 209.253C47.0534 208.917 46.6212 208.581 46.1758 208.234C38.181 201.856 31.0802 194.473 24.9808 186.27C24.7657 185.983 24.5506 185.696 24.329 185.4C8.88197 164.622 0.192278 138.86 0.145764 112.962C0.142937 112.263 0.139945 111.565 0.136801 110.866C0.12742 108.593 0.122681 106.319 0.118182 104.045C0.116358 103.259 0.114507 102.473 0.112626 101.687C0.104077 97.9983 0.0976621 94.3099 0.0938969 90.6215C0.0894846 86.3707 0.0775887 82.12 0.059461 77.8692C0.045899 74.5759 0.0392232 71.2825 0.0377308 67.9891C0.0366729 66.0247 0.0326359 64.0604 0.0213165 62.0961C0.0108567 60.2517 0.00892993 58.4076 0.0135625 56.5632C0.0137859 55.8868 0.0109273 55.2105 0.00475785 54.5342C-0.00319746 53.6105 -3.00952e-05 52.6874 0.00589792 51.7637C0.00482293 51.2472 0.00375009 50.7306 0.00264252 50.1984C0.275765 48.5123 0.846165 47.7823 2.02582 46.5698C3.34117 45.7236 3.34117 45.7236 4.87058 44.9309C5.14571 44.7863 5.42085 44.6417 5.70432 44.4927C6.59506 44.0257 7.48921 43.5657 8.38345 43.1054C9.31249 42.6199 10.2406 42.1326 11.1687 41.6453C11.781 41.324 12.3936 41.0033 13.0065 40.6833C15.2743 39.4986 17.5193 38.2781 19.7484 37.0217C22.8271 35.2926 25.9256 33.6029 29.0317 31.9237C32.4628 30.0676 35.885 28.1977 39.2914 26.2965C42.4875 24.5126 45.6889 22.7383 48.8922 20.9674C49.1728 20.8123 49.4533 20.6571 49.7423 20.4973C53.9751 18.1577 58.2229 15.8473 62.4792 13.5508C66.0105 11.6394 69.5025 9.66292 72.9903 7.67329C76.1799 5.86078 79.4044 4.12545 82.6615 2.43771C82.9895 2.26761 83.3174 2.09751 83.6553 1.92226C83.9406 1.77547 84.2259 1.62868 84.5198 1.47744C86.9871 0.12901 88.2945 -0.25084 91.1451 0.153117ZM85.1532 11.4193C84.4144 11.835 83.6753 12.2504 82.9361 12.6656C82.525 12.8971 82.1139 13.1286 81.6902 13.3671C79.1467 14.7943 76.5941 16.205 74.0414 17.6157C73.6253 17.8458 73.6253 17.8458 73.2008 18.0806C68.7008 20.568 64.1814 23.0172 59.6521 25.4507C55.9684 27.4317 52.31 29.4542 48.6591 31.4946C46.1706 32.8825 43.6778 34.2626 41.1843 35.6416C40.9059 35.7955 40.6275 35.9495 40.3407 36.1082C36.3309 38.3246 32.3079 40.5143 28.2721 42.6829C24.9333 44.4771 21.5989 46.2778 18.2856 48.1189C17.9893 48.2832 17.693 48.4475 17.3877 48.6168C16.8185 48.9345 16.253 49.2589 15.692 49.5907C14.6286 50.1749 14.6286 50.1749 13.285 50.7525C10.4062 52.0787 10.4062 52.0787 8.73269 54.628C8.55085 56.2763 8.54352 57.8494 8.59279 59.5071C8.5921 60.1331 8.58905 60.7591 8.58382 61.385C8.57652 63.0818 8.60269 64.7766 8.63527 66.4731C8.66419 68.2607 8.66323 70.0482 8.66591 71.836C8.67461 74.8465 8.70326 77.8562 8.74575 80.8664C8.79972 84.695 8.8236 88.5231 8.83664 92.3521C8.84799 95.6765 8.87123 99.0009 8.89745 102.325C8.90287 103.03 8.90793 103.735 8.91261 104.44C9.1428 138.91 19.7944 168.286 43.4348 193.481C43.711 193.776 43.9872 194.072 44.2717 194.377C46.5109 196.699 49.0195 198.681 51.5366 200.691C52.0203 201.086 52.5038 201.482 52.9871 201.877C56.9606 205.102 61.1216 207.943 65.4896 210.605C65.9376 210.879 65.9376 210.879 66.3946 211.159C70.7606 213.792 75.3333 216 79.9566 218.137C80.5855 218.428 81.2135 218.721 81.8404 219.016C82.7281 219.433 83.6198 219.839 84.5132 220.243C85.0321 220.481 85.5509 220.719 86.0855 220.964C88.6715 221.773 90.6047 220.905 93.0124 219.87C93.5356 219.646 94.0588 219.422 94.5978 219.191C95.1537 218.949 95.7094 218.706 96.265 218.463C96.5474 218.341 96.8299 218.219 97.1209 218.092C101.506 216.191 105.835 214.217 110.049 211.957C110.336 211.806 110.623 211.655 110.918 211.499C124.986 204.054 138.026 192.846 147.407 179.961C147.734 179.518 147.734 179.518 148.068 179.066C160.22 162.528 167.8 143.57 170.362 123.18C170.402 122.868 170.442 122.557 170.483 122.236C170.866 118.877 170.873 115.541 170.864 112.163C170.863 111.519 170.863 110.874 170.864 110.23C170.864 108.494 170.861 106.758 170.858 105.022C170.855 103.202 170.855 101.383 170.854 99.5635C170.853 96.1242 170.849 92.685 170.845 89.2457C170.84 85.3277 170.837 81.4097 170.835 77.4918C170.83 69.4377 170.822 61.3836 170.812 53.3295C169.237 52.4682 167.662 51.6073 166.087 50.7465C165.645 50.5048 165.203 50.2631 164.748 50.014C161.175 48.0618 157.588 46.1379 153.99 44.232C153.38 43.9083 152.77 43.5844 152.16 43.2605C150.903 42.593 149.646 41.9256 148.388 41.2586C145.322 39.6322 142.257 38.0033 139.193 36.3739C138.894 36.2146 138.594 36.0554 138.285 35.8913C133.605 33.4027 128.932 30.9008 124.262 28.3923C120.28 26.2544 116.291 24.1301 112.3 22.0095C107.835 19.6371 103.373 17.2614 98.9163 14.8737C98.1179 14.4461 97.3194 14.0188 96.5208 13.5916C94.5402 12.5293 92.5639 11.4694 90.6265 10.3296C88.3672 9.07295 87.2149 10.2451 85.1532 11.4193Z" fill="#0B5884"/>
<path d="M131.654 90.2825C133.073 91.3873 133.774 92.1515 134.355 93.8595C134.355 95.6093 133.897 96.4408 133.004 97.9435C132.146 98.7905 131.323 99.5334 130.388 100.281C130.003 100.598 130.003 100.598 129.61 100.922C127.503 102.648 125.356 104.325 123.207 105.998C121.409 107.402 119.658 108.851 117.926 110.336C115.974 112.009 113.991 113.629 111.962 115.209C109.256 117.317 106.602 119.485 103.96 121.673C101.741 123.51 99.5138 125.335 97.2777 127.151C95.3055 128.753 93.3345 130.356 91.3702 131.967C90.545 132.643 89.7198 133.319 88.8947 133.995C88.6112 134.228 88.3278 134.461 88.0358 134.7C87.0851 135.48 86.1333 136.259 85.1814 137.037C84.7345 137.404 84.7345 137.404 84.2785 137.779C78.5854 142.427 78.5854 142.427 76.4607 142.389C75.9786 142.397 75.9786 142.397 75.4867 142.406C73.9869 141.955 73.2839 141.003 72.2411 139.854C71.8581 139.448 71.4752 139.043 71.0806 138.625C68.7445 136.088 66.4984 133.515 64.3345 130.827C63.0497 129.257 61.7281 127.724 60.3979 126.193C60.1507 125.909 59.9036 125.624 59.649 125.331C59.1463 124.753 58.6436 124.174 58.1408 123.596C56.2648 121.437 54.3933 119.275 52.5504 117.087C52.0541 116.5 51.5523 115.917 51.0495 115.336C49.8423 113.864 49.3255 113.074 49.0329 111.153C49.3031 109.56 49.6306 108.666 50.6364 107.407C52.2695 106.421 53.4945 106.254 55.3659 106.515C57.8458 107.491 59.3735 109.883 60.9886 111.914C61.6731 112.749 62.3576 113.585 63.0422 114.42C63.3723 114.83 63.7025 115.239 64.0426 115.661C65.0198 116.847 66.0308 117.988 67.0649 119.124C68.833 121.067 70.4946 123.078 72.1426 125.123C73.4097 126.66 74.7434 128.128 76.0968 129.589C76.742 130.39 76.742 130.39 76.742 131.291C80.3454 128.421 83.9191 125.514 87.491 122.604C88.4385 121.833 89.3865 121.062 90.3346 120.291C92.9335 118.178 95.532 116.065 98.1217 113.941C101.028 111.558 103.946 109.188 106.862 106.816C108.077 105.829 109.291 104.842 110.505 103.854C111.101 103.368 111.698 102.883 112.295 102.398C113.821 101.158 115.344 99.9156 116.864 98.6688C128.26 89.3312 128.26 89.3312 131.654 90.2825Z" fill="#0B5884"/>
</svg>
