<svg width="240" height="240" viewBox="0 0 240 240" fill="none" xmlns="http://www.w3.org/2000/svg">
<path d="M190.234 79.898C190.661 79.8945 191.087 79.891 191.526 79.8874C192.934 79.8786 194.342 79.8844 195.75 79.8911C196.729 79.8898 197.708 79.8879 198.687 79.8853C200.738 79.8824 202.789 79.8867 204.84 79.896C207.47 79.9074 210.099 79.9008 212.729 79.8889C214.75 79.8817 216.771 79.884 218.792 79.8891C219.762 79.8905 220.731 79.8888 221.701 79.8842C223.056 79.8791 224.411 79.8868 225.766 79.898C226.167 79.8939 226.568 79.8899 226.981 79.8857C228.672 79.9115 229.743 79.9581 231.103 81.0097C232.179 82.3831 232.249 83.0155 232.246 84.7407C232.25 85.2667 232.254 85.7927 232.258 86.3346C232.252 86.9118 232.247 87.4891 232.241 88.0838C232.242 88.6975 232.244 89.3111 232.246 89.9433C232.248 91.6476 232.242 93.3513 232.232 95.0555C232.224 96.8928 232.226 98.7301 232.228 100.567C232.229 103.751 232.223 106.934 232.211 110.118C232.195 114.721 232.19 119.324 232.187 123.927C232.183 131.394 232.17 138.862 232.151 146.329C232.133 153.584 232.118 160.839 232.11 168.093C232.109 168.54 232.109 168.988 232.108 169.448C232.106 171.691 232.103 173.934 232.101 176.177C232.08 194.787 232.045 213.397 232 232.008C234.64 232.008 237.28 232.008 240 232.008C240 234.645 240 237.283 240 240C160.8 240 81.6 240 0 240C0 237.363 0 234.725 0 232.008C2.475 232.008 4.95 232.008 7.5 232.008C7.49214 231.264 7.48429 230.521 7.4762 229.755C7.44903 226.995 7.43182 224.235 7.4176 221.474C7.41006 220.28 7.39983 219.086 7.38684 217.891C7.36863 216.174 7.36013 214.457 7.35352 212.74C7.34577 212.206 7.33802 211.673 7.33005 211.123C7.32899 206.455 7.329 206.455 9 204.535C10.6059 203.733 12.3563 203.953 14.1208 203.947C14.5469 203.944 14.973 203.94 15.412 203.937C16.8255 203.927 18.2389 203.921 19.6523 203.916C20.3754 203.913 20.3754 203.913 21.113 203.91C23.6635 203.9 26.2139 203.892 28.7644 203.888C31.402 203.882 34.0394 203.865 36.6769 203.845C38.7023 203.832 40.7277 203.828 42.7532 203.826C43.7256 203.824 44.6981 203.818 45.6705 203.809C47.0304 203.797 48.3898 203.797 49.7498 203.8C50.3538 203.791 50.3538 203.791 50.97 203.781C52.7085 203.797 53.7974 203.897 55.2514 204.886C56.1494 206.262 56.2429 207.01 56.2271 208.644C56.2268 209.172 56.2266 209.699 56.2263 210.242C56.211 211.068 56.211 211.068 56.1953 211.91C56.1933 212.419 56.1913 212.928 56.1892 213.452C56.1788 215.35 56.1508 217.248 56.125 219.145C56.0837 223.39 56.0425 227.635 56 232.008C69.2 232.008 82.4 232.008 96 232.008C95.9768 227.271 95.9536 222.535 95.9297 217.655C95.9195 214.659 95.9098 211.663 95.9023 208.667C95.8905 203.909 95.8765 199.152 95.8491 194.394C95.8292 190.929 95.8163 187.464 95.8118 183.999C95.8092 182.164 95.8031 180.329 95.7885 178.495C95.7724 176.447 95.772 174.4 95.7729 172.352C95.7658 171.743 95.7586 171.133 95.7512 170.505C95.7539 169.948 95.7567 169.39 95.7595 168.816C95.7576 168.331 95.7558 167.847 95.7539 167.348C96.075 165.684 96.6659 165.094 98 164.074C99.4739 163.877 100.761 163.801 102.234 163.816C102.874 163.811 102.874 163.811 103.526 163.805C104.934 163.796 106.342 163.802 107.75 163.809C108.729 163.808 109.708 163.806 110.687 163.803C112.738 163.8 114.789 163.805 116.84 163.814C119.47 163.825 122.099 163.819 124.729 163.807C126.75 163.799 128.771 163.802 130.792 163.807C131.762 163.808 132.731 163.807 133.701 163.802C135.056 163.797 136.411 163.805 137.766 163.816C138.167 163.812 138.568 163.808 138.981 163.804C140.666 163.829 141.743 163.878 143.104 164.918C144.205 166.337 144.247 167.035 144.241 168.816C144.245 169.652 144.245 169.652 144.249 170.505C144.242 171.115 144.234 171.724 144.227 172.352C144.227 172.995 144.228 173.639 144.228 174.302C144.229 176.064 144.217 177.827 144.203 179.589C144.19 181.432 144.189 183.275 144.187 185.117C144.181 188.606 144.164 192.094 144.144 195.583C144.118 200.297 144.107 205.012 144.095 209.727C144.076 217.154 144.036 224.581 144 232.008C157.2 232.008 170.4 232.008 184 232.008C183.99 227.479 183.979 222.95 183.968 218.283C183.936 203.802 183.914 189.32 183.898 174.839C183.895 172.59 183.893 170.342 183.89 168.093C183.89 167.646 183.889 167.198 183.889 166.737C183.88 159.483 183.864 152.23 183.846 144.977C183.827 137.537 183.816 130.098 183.812 122.658C183.809 118.065 183.8 113.473 183.784 108.88C183.774 105.733 183.77 102.586 183.773 99.4391C183.774 97.6219 183.772 95.8049 183.762 93.9877C183.75 92.0197 183.754 90.0519 183.759 88.0838C183.754 87.5066 183.748 86.9293 183.742 86.3346C183.746 85.8086 183.75 85.2826 183.754 84.7407C183.753 84.2863 183.752 83.8318 183.752 83.3636C184.464 79.8951 187.237 79.8677 190.234 79.898ZM192 88.1487C192 135.622 192 183.096 192 232.008C202.56 232.008 213.12 232.008 224 232.008C224 184.534 224 137.061 224 88.1487C213.44 88.1487 202.88 88.1487 192 88.1487ZM104 172.067C104 191.847 104 211.628 104 232.008C114.56 232.008 125.12 232.008 136 232.008C136 212.227 136 192.447 136 172.067C125.44 172.067 114.88 172.067 104 172.067ZM16 212.027C16 218.621 16 225.214 16 232.008C26.395 232.008 36.79 232.008 47.5 232.008C47.5 225.414 47.5 218.821 47.5 212.027C37.105 212.027 26.71 212.027 16 212.027Z" fill="#0B5884"/>
<path d="M175.281 0.0786583C176.231 0.0564438 176.231 0.0564438 177.2 0.0337804C177.794 0.029917 178.389 0.0260536 179.002 0.0220731C179.532 0.014789 180.062 0.00750486 180.609 0C182.356 0.294781 182.922 0.854506 184 2.2328C184.483 3.68172 184.596 4.72726 184.658 6.24059C184.679 6.7461 184.7 7.2516 184.722 7.77242C184.751 8.58464 184.751 8.58464 184.781 9.41327C184.802 9.96602 184.824 10.5188 184.846 11.0883C185.031 16.2963 185.049 21.4984 185 26.7088C182.287 27.6123 179.334 27.2343 176.5 27.2083C176.335 23.7467 176.17 20.2851 176 16.7186C174.966 16.6112 174.966 16.6112 174.26 17.343C172.447 19.2001 170.703 21.0972 169.008 23.062C167.778 24.4649 166.515 25.837 165.25 27.2083C163.439 29.1728 161.655 31.1556 159.904 33.1732C158.367 34.9214 156.789 36.6327 155.219 38.3517C153.855 39.8558 152.516 41.3789 151.188 42.9137C150.647 43.526 150.078 44.1138 149.5 44.6912C149.537 47.6792 151.192 49.8783 152.75 52.3088C153.255 53.1125 153.761 53.9164 154.266 54.7205C154.49 55.0728 154.715 55.4252 154.946 55.7883C156.551 58.3711 156.251 61.2105 156 64.1721C154.757 68.2383 150.974 70.2131 147.5 72.1643C147.363 74.3765 147.264 76.5864 147.198 78.8015C147.17 79.5533 147.133 80.3048 147.085 81.0556C146.932 83.5182 146.895 85.7436 147.5 88.1487C149.132 89.8386 150.901 90.6535 153 91.6453C155.33 93.7427 156.104 95.9019 156.312 98.9818C156.275 103.226 154.389 106.114 152.165 109.586C151.492 110.639 150.841 111.702 150.193 112.771C148.993 114.741 147.758 116.686 146.5 118.619C146.222 119.048 145.944 119.478 145.658 119.92C143.719 122.718 141.585 124.716 138.156 125.368C134.904 125.563 132.94 124.888 130.094 123.333C127.91 122.246 127.91 122.246 125.555 122.366C123.508 123.321 121.716 124.645 119.903 125.98C118.53 126.94 117.098 127.652 115.594 128.391C115.116 128.628 114.639 128.866 114.146 129.111C113 129.608 113 129.608 112 129.608C112.017 130.03 112.035 130.453 112.053 130.888C112.229 138.252 112.229 138.252 109.562 141.099C107.249 143.202 105.673 144.147 102.499 144.182C101.989 144.189 101.48 144.195 100.956 144.202C100.406 144.205 99.8557 144.209 99.2891 144.213C98.7224 144.217 98.1557 144.221 97.5719 144.225C96.3715 144.232 95.1711 144.237 93.9707 144.241C92.1391 144.25 90.308 144.272 88.4766 144.294C87.3099 144.299 86.1432 144.303 84.9766 144.307C84.4306 144.315 83.8847 144.324 83.3222 144.333C79.7589 144.323 77.4401 143.933 74.7737 141.408C73.2736 139.757 72.4804 138.261 72 136.102C72.0606 135.663 72.1212 135.225 72.1836 134.773C72.3456 132.873 72.3008 131.861 71.5 130.108C68.927 127.996 65.7909 126.691 62.8008 125.279C60.7443 124.226 58.8941 122.935 57 121.616C57.7425 117.66 57.7425 117.66 58.5 113.624C62.4341 114.185 62.4341 114.185 64.0996 115.269C64.464 115.5 64.8283 115.731 65.2037 115.969C65.5799 116.215 65.9561 116.461 66.3438 116.714C68.9802 118.392 71.5696 119.958 74.4062 121.272C77.8285 122.918 79.0678 124.532 80.5 128.11C80.665 130.582 80.83 133.055 81 135.602C88.26 135.602 95.52 135.602 103 135.602C103.165 133.13 103.33 130.657 103.5 128.11C105.14 123.62 108.086 121.662 112.281 119.712C114.969 118.43 117.453 117.046 119.937 115.403C123.067 113.442 125.565 112.599 129.221 113.388C130.926 113.907 132.353 114.533 133.875 115.466C135.268 116.278 135.909 116.39 137.5 116.121C138.57 114.903 138.57 114.903 139.441 113.259C139.612 112.965 139.782 112.672 139.958 112.37C140.502 111.429 141.032 110.482 141.562 109.534C141.923 108.905 142.284 108.276 142.646 107.648C143.315 106.487 143.977 105.323 144.635 104.156C145.189 103.182 145.757 102.215 146.342 101.258C146.964 100.198 147.277 99.3404 147.5 98.1389C147.005 97.9689 147.005 97.9689 146.5 97.7955C142.869 96.2083 140.037 94.4544 138.5 90.6462C137.937 87.3331 137.89 84.0832 137.88 80.7304C137.875 79.7252 137.859 78.7206 137.844 77.7155C137.826 73.2888 138.112 69.7898 140.562 66.0453C142.342 64.3447 144.908 62.1741 147.5 62.1741C146.327 58.5691 144.504 55.5455 142.5 52.34C142.028 51.5765 142.028 51.5765 141.547 50.7976C140.963 49.852 140.377 48.9074 139.789 47.964C139.246 47.0862 138.725 46.1941 138.224 45.2915C137.985 44.9286 137.746 44.5656 137.5 44.1917C135.567 43.8216 134.502 44.3536 132.906 45.4093C130.137 47.0195 127.608 47.4885 124.43 47.0366C121.564 46.2627 119.198 44.6029 116.762 42.967C114.134 41.2178 111.409 39.8845 108.529 38.5976C105.815 37.0012 104.682 35.1564 103.5 32.2035C103.335 29.7309 103.17 27.2583 103 24.7108C95.74 24.7108 88.48 24.7108 81 24.7108C80.835 27.1834 80.67 29.6559 80.5 32.2035C78.8604 36.6929 75.9139 38.6508 71.7188 40.6015C69.0307 41.8835 66.5468 43.2669 64.0625 44.9098C60.933 46.8705 58.4352 47.7143 54.7793 46.9254C53.0738 46.4061 51.6468 45.7802 50.125 44.8473C48.7316 44.0353 48.0912 43.9228 46.5 44.1917C45.4302 45.4102 45.4302 45.4102 44.5586 47.0541C44.3881 47.3476 44.2176 47.641 44.042 47.9433C43.4983 48.8838 42.9678 49.831 42.4375 50.779C42.077 51.4081 41.7157 52.0367 41.3535 52.6649C40.6853 53.826 40.0233 54.99 39.365 56.1569C38.811 57.1314 38.2433 58.0984 37.6584 59.0547C37.0356 60.1154 36.7227 60.9726 36.5 62.1741C36.83 62.2874 37.16 62.4008 37.5 62.5175C41.1624 64.1182 43.8971 65.8663 45.5 69.6668C46.1436 72.8502 46.1111 76.0263 46.1201 79.2588C46.125 80.3046 46.1405 81.3499 46.1562 82.3955C46.19 86.6815 45.8982 90.2418 43.7187 93.9867C41.9283 95.6837 39.0703 98.1389 36.5 98.1389C36.5 98.4686 36.5 98.7982 36.5 99.1379C35.4584 99.1515 34.4167 99.1611 33.375 99.1691C32.5049 99.1778 32.5049 99.1778 31.6172 99.1867C30.2951 99.1468 29.2509 99.0312 28 98.6384C28.0566 95.4713 28.7605 93.8583 30.9414 91.5574C32.3732 90.325 33.8941 89.4733 35.5898 88.6521C36.5855 88.2134 36.5855 88.2134 37 87.1497C37.1434 85.0543 37.1434 82.9636 37.1262 80.8639C37.1254 80.1678 37.1352 79.4715 37.156 78.7757C37.2219 76.4865 37.1664 74.3795 36.5 72.1643C35.1932 70.8693 33.984 70.1248 32.3337 69.3223C30.4736 68.4094 29.6551 67.3632 28.5 65.6707C27.3998 62.3734 27.3026 58.9291 28.8281 55.7546C29.755 54.0319 30.7797 52.374 31.8347 50.7271C32.5077 49.6743 33.1591 48.6105 33.8066 47.542C35.0068 45.5722 36.2418 43.6274 37.5 41.6942C37.7778 41.2647 38.0556 40.8352 38.3418 40.3927C40.2807 37.5948 42.4153 35.5971 45.8437 34.9449C49.0964 34.7505 51.0599 35.4249 53.9062 36.98C56.0904 38.0667 56.0904 38.0667 58.4446 37.9466C60.4918 36.9922 62.2843 35.6681 64.0969 34.3335C65.4698 33.3735 66.9017 32.6605 68.4062 31.9225C68.8838 31.6849 69.3614 31.4473 69.8535 31.2025C71 30.7049 71 30.7049 72 30.7049C71.9826 30.2825 71.9652 29.8601 71.9473 29.4249C71.7714 22.0609 71.7714 22.0609 74.4375 19.2142C76.7509 17.1113 78.3273 16.1655 81.5015 16.1307C82.0106 16.1243 82.5197 16.1179 83.0443 16.1113C83.5943 16.1076 84.1443 16.1039 84.7109 16.1001C85.5609 16.094 85.5609 16.094 86.4281 16.0879C87.6285 16.0809 88.8289 16.0756 90.0293 16.0717C91.8609 16.0631 93.692 16.0412 95.5234 16.0191C96.6901 16.014 97.8568 16.0098 99.0234 16.0064C99.8424 15.9933 99.8424 15.9933 100.678 15.9799C104.241 15.99 106.56 16.3802 109.226 18.9049C110.726 20.556 111.52 22.0518 112 24.2113C111.939 24.6498 111.879 25.0883 111.816 25.5401C111.654 27.4424 111.697 28.4502 112.5 30.2054C115.083 32.3294 118.234 33.6796 121.254 35.0702C122.471 35.6853 123.509 36.395 124.613 37.1908C125.543 37.8289 125.543 37.8289 126.5 38.1976C128.281 37.8554 128.281 37.8554 129.906 36.8551C132.99 35.3046 135.548 34.5369 139 35.2005C140.132 35.6403 141.136 36.1298 142.172 36.7615C143.065 37.3152 143.065 37.3152 144.5 37.1986C145.284 36.5048 145.284 36.5048 146.031 35.5439C147.484 33.8103 148.971 32.1223 150.5 30.4552C151.923 28.8972 153.336 27.3344 154.719 25.741C156.199 24.038 157.721 22.3741 159.25 20.7147C161.077 18.7323 162.881 16.7346 164.648 14.6991C166.25 12.8608 167.878 11.0458 169.5 9.22595C165.54 9.22595 161.58 9.22595 157.5 9.22595C156.907 7.44747 156.952 6.01006 156.969 4.13718C156.973 3.50165 156.978 2.86612 156.982 2.21134C156.991 1.48019 156.991 1.48019 157 0.734266C163.09 0.361916 169.18 0.151748 175.281 0.0786583Z" fill="#0B5884"/>
<path d="M117.641 54.2775C124.879 61.7473 128.5 70.6933 128.5 81.1555C127.767 92.2857 123.257 100.72 115.299 108.27C106.892 115.536 96.7214 116.746 86 116.121C79.5199 115.416 72.953 111.753 68 107.63C68.7578 105.892 69.7887 104.655 71.0625 103.259C71.4247 102.86 71.787 102.46 72.1602 102.049C72.4373 101.748 72.7145 101.446 73 101.136C74.8172 101.45 75.971 102.239 77.4688 103.29C83.6893 107.32 90.5455 108.216 97.7578 107.021C104.336 105.547 110.667 101.779 114.5 96.1409C117.877 90.2493 119.188 85.5169 119 78.658C118.727 78.9606 118.455 79.2632 118.174 79.575C112.25 86.1506 112.25 86.1506 111.133 87.3897C110.355 88.2534 109.579 89.1185 108.805 89.9848C108.038 90.8403 107.268 91.6925 106.494 92.5409C105.914 93.1838 105.345 93.8366 104.803 94.5116C103.992 95.4729 103.28 96.0719 102.049 96.375C100.874 96.4624 100.129 96.5039 99 96.1409C96.7907 94.1782 95.2448 91.926 93.6309 89.4657C93.368 89.0701 93.1052 88.6745 92.8344 88.2669C92.0015 87.0118 91.1726 85.7539 90.3438 84.496C89.7773 83.6409 89.2106 82.7859 88.6436 81.9311C87.2593 79.8431 85.8787 77.7526 84.5 75.6609C83.9437 76.1305 83.3883 76.6012 82.8334 77.0724C82.524 77.3344 82.2146 77.5964 81.8959 77.8663C80.6328 78.9824 79.5255 80.2091 78.4062 81.4677C76.457 83.6364 74.4524 85.7276 72.375 87.774C70.7863 89.341 69.2272 90.9117 67.7812 92.6131C66.2 94.4723 64.4851 96.1751 62.75 97.8891C61.0253 99.5928 59.3194 101.284 57.75 103.134C55.9177 105.294 53.8924 107.25 51.8789 109.239C50.4471 110.66 49.0556 112.085 47.75 113.624C45.9177 115.784 43.8924 117.74 41.8789 119.729C40.4471 121.15 39.0556 122.574 37.75 124.113C36.1806 125.964 34.4747 127.655 32.75 129.358C31.0358 131.052 29.3387 132.731 27.7812 134.572C25.843 136.858 23.6874 138.924 21.5579 141.029C19.7755 142.798 18.0829 144.6 16.4629 146.519C14.7826 148.389 12.9732 150.134 11.1766 151.891C9.64879 153.341 9.64879 153.341 8.5 155.083C6.76112 154.326 5.5221 153.296 4.125 152.024C3.72539 151.662 3.32578 151.3 2.91406 150.927C2.4616 150.512 2.4616 150.512 2 150.088C2.27323 148.133 3.14968 147.297 4.5625 145.967C5.98446 144.595 7.35088 143.231 8.625 141.721C10.2417 139.834 11.9835 138.096 13.75 136.351C15.4747 134.648 17.1806 132.957 18.75 131.107C20.5823 128.947 22.6076 126.99 24.6211 125.001C26.0529 123.581 27.4444 122.156 28.75 120.617C30.5823 118.457 32.6076 116.501 34.6211 114.512C36.0529 113.091 37.4444 111.666 38.75 110.127C40.5823 107.967 42.6076 106.011 44.6211 104.022C46.0529 102.601 47.4444 101.177 48.75 99.6374C50.5823 97.4774 52.6076 95.521 54.6211 93.5321C56.0529 92.1116 57.4444 90.6868 58.75 89.1477C60.5823 86.9877 62.6076 85.0313 64.6211 83.0424C66.0529 81.6219 67.4444 80.1971 68.75 78.658C70.5794 76.5014 72.6006 74.5469 74.6123 72.5625C76.1375 71.0509 77.6052 69.5221 79 67.8873C82.2878 64.0887 82.2878 64.0887 85 63.8912C86.5434 63.8383 86.9641 64.1403 88.142 65.1863C89.7699 66.864 90.9958 68.7809 92.2598 70.738C92.5115 71.1225 92.7632 71.507 93.0225 71.9032C93.82 73.1227 94.6132 74.3449 95.4062 75.5672C95.9486 76.3983 96.4913 77.2292 97.0342 78.0599C98.3593 80.0888 99.6807 82.12 101 84.1526C102.986 83.2459 104.227 81.9577 105.656 80.3438C105.9 80.0735 106.143 79.8031 106.394 79.5246C107.984 77.7553 109.556 75.9704 111.115 74.1741C112.886 72.1509 114.696 70.1623 116.5 68.1682C113.025 61.109 107.941 56.8258 100.596 54.0453C93.8184 51.8005 85.8738 52.7079 79.5 55.6805C74.3321 58.2884 70.4862 62.2403 67.5 67.1692C64.7603 66.3973 62.4429 65.0935 60 63.6726C61.9655 56.83 68.4987 51.5469 74.5 48.1878C88.699 40.6888 106.145 42.9356 117.641 54.2775Z" fill="#0B5884"/>
</svg>
