<svg width="191" height="241" viewBox="0 0 191 241" fill="none" xmlns="http://www.w3.org/2000/svg">
<path d="M89.1291 2.15577C94.0082 3.72887 98.018 3.0762 102.781 1.36842C109.853 -0.992684 117.966 -0.181363 124.624 2.90284C128.591 4.99106 131.426 7.92532 134.455 11.1517C138.045 14.8316 141.236 16.1151 146.187 17.2656C153.55 18.9932 160.179 22.7693 164.396 29.1986C164.897 30.0506 165.387 30.9096 165.861 31.7767C166.043 32.1018 166.225 32.4269 166.412 32.7619C167.725 35.3865 168.251 38.1584 168.876 41.0032C169.945 45.6878 171.916 49.3767 175.588 52.5189C180.83 57.061 184.973 62.836 185.658 69.9431C185.725 71.1976 185.75 72.4443 185.754 73.7006C185.755 74.1512 185.757 74.6019 185.758 75.0662C185.697 78.7536 184.926 81.8851 183.763 85.3571C182.19 90.2362 182.843 94.246 184.551 99.0094C186.831 105.84 186.262 113.907 183.205 120.371C180.952 124.725 177.836 128.103 173.976 131.093C170.432 134.121 169.361 138.339 168.421 142.707C167.073 148.891 164.369 153.548 159.768 157.87C160.543 159.995 161.594 161.91 162.697 163.876C162.902 164.243 163.106 164.609 163.317 164.986C165.28 168.484 167.304 171.946 169.332 175.406C171.481 179.078 173.599 182.767 175.705 186.464C178.105 190.676 180.524 194.877 182.971 199.062C183.375 199.757 183.375 199.757 183.789 200.465C184.93 202.423 186.075 204.377 187.242 206.318C187.42 206.618 187.598 206.917 187.781 207.226C188.228 207.979 188.68 208.729 189.132 209.479C189.869 211.057 190.12 212.386 190.236 214.12C189.526 216.003 189.109 216.747 187.424 217.87C183.79 218.411 180.318 217.395 176.844 216.435C176.027 216.216 176.027 216.216 175.193 215.994C173.468 215.531 171.745 215.06 170.021 214.589C168.846 214.273 167.67 213.956 166.495 213.641C163.626 212.869 160.758 212.091 157.893 211.308C157.767 211.793 157.767 211.793 157.638 212.289C156.844 215.346 156.045 218.401 155.239 221.454C154.825 223.024 154.414 224.594 154.007 226.166C153.538 227.975 153.061 229.781 152.582 231.587C152.366 232.43 152.366 232.43 152.146 233.29C152.005 233.816 151.864 234.341 151.72 234.882C151.538 235.574 151.538 235.574 151.354 236.28C150.676 238.039 149.767 239.511 148.049 240.37C147.117 240.499 147.117 240.499 146.027 240.546C145.671 240.569 145.315 240.592 144.949 240.616C142.725 240.128 141.666 238.302 140.479 236.483C140.128 235.877 139.78 235.268 139.435 234.658C139.239 234.316 139.042 233.975 138.84 233.624C138.399 232.859 137.961 232.093 137.523 231.326C136.746 229.966 135.963 228.609 135.178 227.253C133.677 224.657 132.18 222.06 130.684 219.462C129.208 216.899 127.73 214.338 126.252 211.777C122.125 204.625 122.125 204.625 120.076 201.063C119.49 200.048 118.901 199.034 118.309 198.023C116.822 195.477 115.395 192.919 114.052 190.295C111.368 184.464 111.368 184.464 106.419 180.882C104.992 180.585 103.564 180.474 102.111 180.37C101.283 180.121 100.462 179.849 99.6503 179.55C94.5479 178.047 90.0943 179.366 85.2207 181.032C84.2988 181.308 84.2988 181.308 82.6215 181.517C79.9657 182.723 79.0702 185.135 77.7363 187.636C77.4319 188.188 77.1264 188.739 76.8198 189.29C76.184 190.433 75.5531 191.58 74.9256 192.728C73.4858 195.354 71.9746 197.938 70.4706 200.527C69.8844 201.542 69.2984 202.558 68.7128 203.574C67.5409 205.605 66.3691 207.636 65.1972 209.667C64.907 210.17 64.6167 210.674 64.3177 211.192C63.7337 212.204 63.1497 213.216 62.5656 214.228C61.0706 216.819 59.5763 219.411 58.0835 222.003C56.6196 224.545 55.152 227.085 53.6831 229.624C52.9429 230.908 52.2084 232.195 51.4753 233.482C51.0591 234.206 50.6429 234.93 50.2265 235.654C50.0456 235.975 49.8648 236.297 49.6784 236.628C48.7561 238.221 47.9709 239.483 46.33 240.37C45.3064 240.574 45.3064 240.574 44.2499 240.576C43.9025 240.585 43.555 240.594 43.1971 240.603C41.567 240.254 40.9097 239.726 39.7675 238.495C39.0828 236.961 38.6699 235.372 38.2441 233.749C38.1114 233.271 37.9787 232.792 37.842 232.298C37.4659 230.929 37.0984 229.559 36.7355 228.186C36.4678 227.176 36.1977 226.166 35.9271 225.157C34.6916 220.545 33.4731 215.928 32.2675 211.308C31.9667 211.39 31.6658 211.472 31.3559 211.557C28.2093 212.416 25.0607 213.266 21.9106 214.112C20.7371 214.428 19.5641 214.746 18.3918 215.067C16.7013 215.528 15.009 215.982 13.3161 216.435C12.7969 216.578 12.2776 216.722 11.7427 216.87C8.77084 217.656 5.82037 218.337 2.73626 217.87C1.01181 216.709 0.507724 216.002 0.01897 213.987C-0.0925029 211.948 0.283744 211.044 1.24211 209.257C1.39136 208.975 1.54061 208.694 1.69439 208.403C3.22076 205.562 4.87214 202.789 6.52471 200.02C8.13096 197.323 9.6958 194.604 11.2616 191.884C11.7098 191.106 11.7098 191.106 12.1671 190.313C12.7805 189.248 13.3939 188.183 14.0071 187.118C15.1927 185.06 16.3797 183.002 17.567 180.945C18.1466 179.94 18.7261 178.936 19.3054 177.931C20.6741 175.558 22.044 173.185 23.4176 170.814C24.064 169.698 24.7098 168.582 25.3556 167.465C25.8099 166.681 26.2651 165.897 26.7203 165.112C27.135 164.395 27.135 164.395 27.558 163.664C27.8005 163.246 28.0429 162.827 28.2927 162.396C29.0355 161.063 29.7196 159.709 30.3925 158.339C30.1653 158.145 29.9381 157.95 29.704 157.75C24.6066 153.064 22.5091 147.6 21.0175 140.995C19.7983 135.967 17.6983 132.813 13.8398 129.423C8.20717 124.437 4.52402 117.825 4.03081 110.208C3.90666 105.442 4.57362 101.475 6.01751 96.933C7.65475 91.5642 6.84316 87.5344 5.16973 82.3175C2.8563 75.0162 3.87207 67.2696 7.27727 60.4877C9.36147 56.9215 12.1502 54.0732 15.2753 51.4057C18.648 48.4377 19.7698 45.6058 20.7776 41.2834C22.0183 35.9676 23.6755 31.3859 27.1113 27.0892C27.4007 26.7031 27.6901 26.317 27.9883 25.9192C32.2249 20.9364 38.0292 18.6255 44.2499 17.2748C50.319 15.9102 53.6091 13.3731 57.7247 8.79609C66.0606 -0.326084 77.825 -1.63505 89.1291 2.15577ZM64.1425 16.308C63.6199 16.9189 63.1023 17.5343 62.5898 18.1537C58.0986 23.385 52.2753 25.5591 45.7441 27.0892C40.1396 28.4159 35.9891 31.0238 32.8534 35.9662C31.6497 38.2855 31.1843 40.7528 30.6325 43.2858C28.9772 50.7507 25.2394 56.4982 19.3183 61.2787C16.0471 64.0511 14.2995 67.9329 13.8196 72.146C13.653 76.1141 14.4674 79.3714 15.7715 83.0609C18.1033 90.0943 16.528 96.4913 14.4037 103.283C13.0604 108.492 14.1406 113.154 16.7695 117.734C18.1689 119.515 19.8006 121.045 21.4405 122.603C26.483 127.428 29.3037 132.208 30.8082 139.106C32.0308 144.659 34.0727 148.891 38.83 152.245C41.4868 153.832 44.1473 154.583 47.1503 155.234C54.2275 156.906 59.2421 159.826 63.9374 165.458C67.1031 169.17 71.5029 171.455 76.3263 172.129C80.2053 172.308 83.5847 171.336 87.2284 170.148C93.6463 168.109 100.322 168.915 106.535 171.318C110.656 172.739 115.244 172.349 119.217 170.67C122.191 169.122 124.388 167.063 126.576 164.56C130.903 159.621 136.044 156.466 142.568 155.234C148.141 154.178 152.462 152.108 156.018 147.558C157.781 144.717 158.55 141.734 159.24 138.505C160.879 130.991 164.705 125.367 170.695 120.605C173.325 118.419 174.643 115.119 175.705 111.933C176.032 107.806 175.946 104.082 174.562 100.156C172.216 93.4353 172.458 86.4474 175.09 79.8236C176.414 76.1526 176.286 71.2711 174.943 67.6361C173.286 64.2022 171.081 61.7918 168.234 59.2865C163.157 54.7982 160.546 49.1536 159.152 42.6166C157.801 36.8181 155.435 32.5398 150.361 29.2792C147.556 27.7033 144.682 27.0424 141.572 26.359C139.019 25.7903 136.753 25.0842 134.455 23.808C134.07 23.6098 133.685 23.4116 133.289 23.2074C130.342 21.5357 128.248 19.4828 126.018 16.9818C122.282 12.8275 118.758 10.4419 113.079 9.76747C109.437 9.71723 106.01 10.7852 102.58 11.9135C95.995 13.9504 89.6021 12.8553 83.2532 10.6336C76.1139 8.32762 69.2306 11.134 64.1425 16.308ZM39.2988 163.495C38.5955 164.361 38.5955 164.361 37.9731 165.528C37.5902 166.195 37.5902 166.195 37.1996 166.875C36.9255 167.365 36.6514 167.854 36.3691 168.359C36.0802 168.865 35.7913 169.37 35.4937 169.892C34.8804 170.966 34.2688 172.041 33.6598 173.118C32.491 175.178 31.3056 177.228 30.1192 179.278C29.2424 180.794 28.3678 182.31 27.4939 183.828C25.9534 186.502 24.4123 189.176 22.8704 191.85C22.2817 192.87 21.693 193.891 21.1046 194.913C19.211 198.196 17.3053 201.473 15.3925 204.745C16.9427 205.521 18.4757 204.697 20.0672 204.235C20.8353 204.019 21.6034 203.804 22.3716 203.589C23.5806 203.246 24.7891 202.902 25.9969 202.555C27.1636 202.222 28.332 201.895 29.5008 201.569C29.8554 201.465 30.2101 201.361 30.5755 201.253C32.9866 200.585 35.3967 200.064 37.8925 200.527C40.4201 202.201 40.8888 204.493 41.5601 207.287C41.669 207.709 41.7779 208.131 41.8901 208.566C42.2352 209.908 42.5694 211.252 42.9023 212.597C43.2417 213.948 43.5834 215.299 43.9295 216.648C44.144 217.486 44.3544 218.326 44.5603 219.166C44.8092 220.148 45.0971 221.12 45.3925 222.089C45.7019 222.244 46.0113 222.399 46.33 222.558C46.4944 222.262 46.6589 221.966 46.8283 221.661C50.408 215.223 54.0452 208.825 57.7704 202.469C59.876 198.876 61.9536 195.267 64.0316 191.657C64.3045 191.183 64.5773 190.71 64.8584 190.222C65.2562 189.529 65.2562 189.529 65.662 188.822C66.2411 187.824 66.8285 186.832 67.4221 185.843C67.723 185.34 68.0238 184.837 68.3338 184.318C68.6085 183.864 68.8831 183.41 69.1661 182.943C69.8749 181.787 69.8749 181.787 69.7675 180.37C69.4267 180.25 69.0859 180.13 68.7348 180.006C63.5208 178.021 59.537 175.077 55.8808 170.908C51.5558 166.026 46.945 164.628 40.705 163.495C40.2409 163.495 39.7769 163.495 39.2988 163.495ZM133.518 170.995C132.974 171.624 132.436 172.259 131.906 172.9C128.805 176.536 124.748 178.574 120.393 180.37C120.665 182.154 121.173 183.43 122.095 184.976C122.354 185.413 122.612 185.85 122.878 186.3C123.16 186.77 123.442 187.24 123.732 187.724C124.335 188.742 124.937 189.761 125.54 190.78C125.852 191.306 126.164 191.832 126.485 192.374C127.979 194.905 129.445 197.452 130.91 199.999C131.494 201.013 132.078 202.027 132.662 203.041C132.955 203.548 133.247 204.055 133.548 204.578C134.491 206.214 135.435 207.848 136.379 209.482C136.698 210.034 137.017 210.585 137.335 211.137C137.936 212.176 138.537 213.216 139.138 214.255C140.728 217.008 142.297 219.772 143.83 222.558C144.139 222.403 144.449 222.249 144.768 222.089C145.19 220.702 145.56 219.329 145.905 217.922C146.126 217.058 146.347 216.194 146.568 215.331C146.914 213.966 147.257 212.6 147.595 211.233C147.923 209.916 148.261 208.601 148.6 207.287C148.698 206.88 148.795 206.473 148.896 206.054C149.523 203.652 150.106 201.958 152.268 200.527C155.14 199.994 157.912 200.763 160.659 201.569C161.224 201.726 161.224 201.726 161.801 201.887C162.99 202.22 164.177 202.559 165.363 202.9C166.562 203.241 167.761 203.581 168.961 203.917C169.704 204.126 170.446 204.337 171.188 204.553C173 205.174 173 205.174 174.768 204.745C170.942 198.026 167.104 191.316 163.195 184.645C161.687 182.066 160.191 179.48 158.711 176.884C158.542 176.589 158.374 176.293 158.2 175.989C157.38 174.55 156.561 173.11 155.744 171.669C154.903 170.191 154.056 168.718 153.205 167.245C152.864 166.645 152.864 166.645 152.517 166.033C152.005 165.163 151.439 164.324 150.861 163.495C144.113 163.495 138.194 166.328 133.518 170.995Z" fill="#0B5884"/>
<path d="M76.33 35.5267C77.6755 36.3677 78.4353 36.9249 79.1425 38.3392C79.4687 41.6015 79.4687 41.6015 78.1922 43.5101C76.7384 45.1418 75.0691 45.8436 73.078 46.6596C69.0776 48.4236 65.6771 50.6163 62.2675 53.3392C61.8439 53.6764 61.4203 54.0136 60.9839 54.361C50.8601 62.9576 45.2737 76.1166 44.0448 89.14C43.3989 103.856 48.6372 117.5 58.5175 128.339C67.1437 137.219 79.5437 143.09 91.9727 143.434C105.647 143.612 117.916 140.27 128.361 131.152C128.699 130.886 129.037 130.621 129.385 130.348C138.344 123.049 144.419 110.669 145.705 99.2767C145.767 98.7668 145.829 98.2568 145.894 97.7313C147.27 83.32 142.513 69.7387 133.43 58.642C128.401 52.7468 121.882 48.8034 114.943 45.517C113.162 44.6321 111.953 43.9177 111.018 42.0892C110.623 40.0289 110.759 38.7445 111.896 36.9623C113.389 35.5137 114.577 35.2508 116.67 35.2777C119.867 35.8552 122.754 37.6815 125.549 39.2767C125.835 39.4396 126.121 39.6024 126.416 39.7702C140.161 47.7484 150.152 61.0503 154.392 76.3453C158.498 92.0521 156.458 109.061 148.38 123.189C146.492 126.368 144.383 129.295 141.955 132.089C141.623 132.478 141.29 132.868 140.948 133.268C130.814 144.86 116.911 151.896 101.643 153.652C99.4919 153.782 97.3513 153.809 95.1972 153.798C94.6233 153.796 94.0494 153.794 93.4581 153.791C89.0053 153.734 84.8609 153.341 80.5488 152.245C79.6569 152.023 79.6569 152.023 78.747 151.795C62.745 147.444 49.6628 136.768 41.4118 122.529C33.3763 108.102 31.85 91.2321 36.0175 75.3705C38.3856 67.1304 42.6518 59.3709 48.205 52.8705C48.5863 52.4185 48.9676 51.9665 49.3604 51.5009C54.6064 45.5006 67.3942 33.7689 76.33 35.5267Z" fill="#0B5884"/>
<path d="M114.768 61.308C117.202 62.6896 119.058 64.5315 121.017 66.5119C121.334 66.8295 121.652 67.1472 121.979 67.4745C122.645 68.1423 123.311 68.8113 123.975 69.4814C124.995 70.5096 126.018 71.5341 127.042 72.558C127.69 73.2084 128.338 73.859 128.986 74.5099C129.292 74.817 129.599 75.1242 129.915 75.4406C130.337 75.8678 130.337 75.8678 130.769 76.3036C131.017 76.5541 131.266 76.8045 131.522 77.0625C132.786 78.4612 132.83 79.8626 132.791 81.6822C132.541 83.0931 132.127 83.6133 131.157 84.6524C130.858 84.976 130.558 85.2997 130.25 85.6331C129.936 85.9589 129.622 86.2848 129.299 86.6205C129.007 86.924 128.716 87.2275 128.416 87.5403C127.48 88.5 126.534 89.4487 125.585 90.3951C125.051 90.9297 125.051 90.9297 124.507 91.4751C123.344 92.6407 122.179 93.8045 121.013 94.9683C120.2 95.7815 119.388 96.5947 118.575 97.4081C116.878 99.1057 115.18 100.803 113.482 102.499C111.301 104.677 109.123 106.857 106.945 109.037C105.27 110.714 103.594 112.389 101.918 114.064C101.114 114.868 100.31 115.672 99.5063 116.477C98.3876 117.597 97.2675 118.715 96.1469 119.833C95.8136 120.167 95.4802 120.502 95.1367 120.846C94.8326 121.149 94.5284 121.452 94.215 121.764C93.9505 122.028 93.686 122.292 93.4135 122.565C92.0021 123.853 90.6062 123.908 88.7596 123.854C87.4017 123.621 86.9361 123.295 85.9365 122.367C85.6125 122.067 85.2884 121.767 84.9546 121.459C82.5606 119.142 80.1938 116.801 77.8406 114.443C77.2692 113.872 76.6976 113.301 76.126 112.73C74.9359 111.541 73.7466 110.35 72.5579 109.16C71.0327 107.632 69.5053 106.106 67.9773 104.581C66.8003 103.405 65.6244 102.229 64.4488 101.052C63.8856 100.489 63.3221 99.9254 62.7583 99.3627C61.9741 98.5797 61.1914 97.7952 60.4091 97.0102C60.1756 96.7777 59.9421 96.5452 59.7015 96.3056C58.185 94.7796 57.4954 93.8676 57.3456 91.7182C57.3998 89.9646 57.6411 89.1074 58.8343 87.8217C59.2812 87.3385 59.2812 87.3385 59.7372 86.8455C61.9458 84.5613 64.1663 82.2908 66.4131 80.0443C67.2827 79.1737 68.1484 78.2994 69.014 77.4249C69.5695 76.8681 70.1252 76.3114 70.6812 75.755C70.9381 75.4948 71.1949 75.2345 71.4596 74.9664C73.2357 73.2008 74.456 72.2513 76.9159 71.8256C79.5185 72.216 80.6072 73.5372 82.4238 75.3705C83.024 75.9653 83.6246 76.5597 84.2255 77.1539C85.9785 78.8935 87.7191 80.6451 89.455 82.4017C92.0892 80.2117 94.5115 77.8687 96.9202 75.4346C97.3087 75.0443 97.6972 74.654 98.0975 74.2519C99.3291 73.0146 100.559 71.7757 101.789 70.5365C103.417 68.8964 105.046 67.2578 106.676 65.6201C107.051 65.2417 107.425 64.8634 107.811 64.4735C108.157 64.126 108.503 63.7785 108.859 63.4205C109.316 62.9601 109.316 62.9601 109.782 62.4904C111.347 61.0343 112.683 61.1343 114.768 61.308ZM112.045 74.2366C111.703 74.5835 111.361 74.9304 111.009 75.2879C110.621 75.679 110.233 76.0701 109.833 76.4731C109.413 76.9008 108.993 77.3285 108.56 77.7692C107.901 78.4334 107.243 79.0976 106.584 79.7617C105.188 81.1693 103.797 82.5812 102.405 83.9922C101.262 85.1511 100.118 86.3091 98.9712 87.4646C98.1103 88.3326 97.2515 89.2027 96.3951 90.0751C95.8086 90.6662 95.8086 90.6662 95.2102 91.2693C94.6961 91.7908 94.6961 91.7908 94.1716 92.3228C92.7046 93.6283 91.7032 94.079 89.748 94.2963C85.9972 93.9083 83.5857 90.7089 81.0761 88.1439C80.7087 87.7723 80.3413 87.4007 79.9628 87.0178C79.0622 86.1062 78.1639 85.1925 77.2675 84.2767C75.893 84.8961 74.93 85.5641 73.8764 86.6388C73.6075 86.9107 73.3386 87.1826 73.0616 87.4628C72.7866 87.7456 72.5117 88.0284 72.2284 88.3197C71.9463 88.6061 71.6641 88.8925 71.3733 89.1876C70.6797 89.8923 69.9889 90.5999 69.2988 91.308C71.4667 93.9116 73.777 96.3167 76.1799 98.7036C76.5608 99.0839 76.9418 99.4643 77.3344 99.8561C78.5414 101.061 79.7501 102.263 80.9589 103.466C81.7818 104.287 82.6045 105.107 83.4272 105.928C85.4352 107.931 87.4446 109.932 89.455 111.933C91.6293 110.115 93.6937 108.23 95.6905 106.219C95.9653 105.945 96.2401 105.67 96.5233 105.387C97.4196 104.49 98.3143 103.592 99.209 102.693C99.8348 102.067 100.461 101.44 101.087 100.814C102.725 99.1735 104.362 97.5318 105.999 95.8897C107.673 94.2109 109.349 92.5333 111.024 90.8557C114.304 87.5703 117.583 84.2834 120.861 80.9955C120.417 80.4742 119.973 79.9533 119.528 79.4326C119.28 79.1425 119.033 78.8523 118.778 78.5534C117.83 77.4628 116.839 76.4255 115.822 75.3998C115.467 75.0379 115.112 74.6759 114.746 74.303C113.548 73.2468 113.252 73.1812 112.045 74.2366Z" fill="#0B5884"/>
<path d="M96.4863 31.308C99.1014 32.7883 99.1014 32.7883 99.7675 34.1205C100.028 36.2918 100.066 37.8619 98.8886 39.7455C97.3542 41.1896 96.27 41.3082 94.1608 41.2891C92.6747 41.0755 91.8835 40.33 90.8613 39.2767C90.0474 37.6489 90.1104 35.8962 90.3925 34.1205C92.2272 31.803 93.5467 31.0253 96.4863 31.308Z" fill="#0B5884"/>
</svg>
